<svg version="1.1" id="Layer_1" xmlns="http://www.w3.org/2000/svg" xmlns:xlink="http://www.w3.org/1999/xlink" x="0px" y="0px"
	 width="100%" viewBox="0 0 335 62" enable-background="new 0 0 335 62" xml:space="preserve">
<path fill="#BFCDD3" opacity="1.000000" stroke="none" 
	d="
M188.000000,63.000000 
	C178.312439,63.000000 168.624878,63.000000 158.268158,62.722229 
	C146.925217,57.363071 137.746933,50.490589 131.523727,39.945621 
	C128.496323,41.614136 125.874916,43.014950 123.294762,44.488029 
	C106.253212,54.217548 89.395576,53.293808 72.778290,43.489559 
	C62.026329,37.145878 55.896149,27.279634 52.370956,15.625221 
	C51.309540,12.116130 49.850132,10.224874 45.647343,9.745400 
	C37.769573,8.846670 29.925697,7.084305 24.000000,1.000000 
	C122.020897,1.000000 220.041794,1.000000 318.519226,1.354594 
	C312.928864,4.115510 307.046356,7.689162 300.784698,8.571098 
	C295.456207,9.321604 293.384125,11.399146 291.793213,15.899992 
	C288.366486,25.594242 283.472656,34.554455 274.848419,40.573425 
	C260.656311,50.478298 245.656570,56.534554 228.385544,48.013058 
	C225.113876,46.398819 221.721588,44.964840 218.258209,43.836823 
	C216.975983,43.419205 214.631042,43.559551 213.956406,44.398666 
	C207.009705,53.038891 198.424591,59.271973 188.000000,63.000000 
z"/>
<path fill="#FEFFFF" opacity="1.000000" stroke="none" 
	d="
M23.531263,1.000000 
	C29.925697,7.084305 37.769573,8.846670 45.647343,9.745400 
	C49.850132,10.224874 51.309540,12.116130 52.370956,15.625221 
	C55.896149,27.279634 62.026329,37.145878 72.778290,43.489559 
	C89.395576,53.293808 106.253212,54.217548 123.294762,44.488029 
	C125.874916,43.014950 128.496323,41.614136 131.523727,39.945621 
	C137.746933,50.490589 146.925217,57.363071 157.799500,62.722229 
	C105.761467,63.000000 53.522938,63.000000 1.142203,63.000000 
	C1.142203,42.333988 1.142203,21.667145 1.142203,1.000000 
	C8.422425,1.000000 15.742476,1.000000 23.531263,1.000000 
z"/>
<path fill="#FEFFFF" opacity="1.000000" stroke="none" 
	d="
M188.468658,63.000000 
	C198.424591,59.271973 207.009705,53.038891 213.956406,44.398666 
	C214.631042,43.559551 216.975983,43.419205 218.258209,43.836823 
	C221.721588,44.964840 225.113876,46.398819 228.385544,48.013058 
	C245.656570,56.534554 260.656311,50.478298 274.848419,40.573425 
	C283.472656,34.554455 288.366486,25.594242 291.793213,15.899992 
	C293.384125,11.399146 295.456207,9.321604 300.784698,8.571098 
	C307.046356,7.689162 312.928864,4.115510 318.987915,1.354594 
	C324.655731,1.000000 330.311432,1.000000 335.983582,1.000000 
	C335.983582,21.615812 335.983582,42.231640 335.983582,63.000000 
	C286.979218,63.000000 237.958267,63.000000 188.468658,63.000000 
z"/>
</svg>